<?xml version="1.0" standalone="no"?>
<!DOCTYPE svg PUBLIC "-//W3C//DTD SVG 20010904//EN"
 "http://www.w3.org/TR/2001/REC-SVG-20010904/DTD/svg10.dtd">
<svg version="1.0" xmlns="http://www.w3.org/2000/svg"
 width="460.000000pt" height="460.000000pt" viewBox="0 0 460.000000 460.000000"
 preserveAspectRatio="xMidYMid meet">
<metadata>
Created by potrace 1.14, written by Peter Selinger 2001-2017
</metadata>
<g transform="translate(0.000000,460.000000) scale(0.100000,-0.100000)"
fill="#000000" stroke="none">
<path d="M0 2300 l0 -2300 2300 0 2300 0 0 2300 0 2300 -2300 0 -2300 0 0
-2300z m1850 980 c18 -18 20 -33 20 -148 0 -70 4 -132 9 -137 16 -17 117 -282
205 -537 89 -261 165 -458 199 -523 12 -22 42 -67 66 -100 87 -121 101 -179
56 -233 -43 -51 -94 -49 -144 7 -66 73 -171 283 -233 466 -34 99 -33 98 -71
75 -18 -11 -50 -20 -73 -20 -22 0 -78 -11 -125 -25 -83 -25 -414 -95 -450 -95
-39 0 -118 -22 -136 -38 -11 -9 -63 -79 -117 -155 -124 -173 -206 -260 -264
-277 -61 -19 -140 0 -187 44 -53 50 -46 72 30 96 22 7 51 22 64 34 37 33 183
231 341 461 79 116 191 273 249 350 131 175 233 333 283 444 122 268 165 331
224 331 21 0 42 -8 54 -20z m1273 -54 c14 -13 31 -42 38 -65 14 -46 13 -51
-41 -301 -60 -279 -81 -391 -130 -705 -5 -33 -19 -112 -30 -175 -11 -63 -20
-143 -20 -177 0 -56 3 -64 25 -79 23 -15 31 -15 122 4 54 12 157 36 228 55
188 50 361 78 515 84 119 5 138 4 153 -11 44 -44 21 -125 -46 -162 -33 -18
-62 -22 -205 -28 -183 -8 -277 -22 -452 -68 -63 -17 -154 -41 -202 -54 -157
-41 -227 -49 -278 -32 -59 19 -90 64 -90 127 0 40 15 136 50 326 33 181 59
330 69 390 6 39 18 115 26 170 9 55 22 141 30 190 8 50 19 155 25 235 15 201
24 244 61 275 42 35 115 35 152 1z"/>
<path d="M1670 2783 c-81 -110 -244 -356 -300 -453 -24 -41 -50 -86 -59 -99
l-15 -24 79 6 c44 4 109 13 145 21 118 26 395 99 403 106 13 11 -155 495 -182
522 -4 4 -36 -31 -71 -79z"/>
</g>
</svg>
